<?xml version="1.0" encoding="utf-8"?>
<!-- Generator: Adobe Illustrator 24.3.0, SVG Export Plug-In . SVG Version: 6.00 Build 0)  -->
<svg version="1.1" id="Capa_1" xmlns="http://www.w3.org/2000/svg" xmlns:xlink="http://www.w3.org/1999/xlink" x="0px" y="0px"
	 viewBox="0 0 370.9 370.9" style="enable-background:new 0 0 370.9 370.9;" xml:space="preserve">
<style type="text/css">
	.st0{fill:#FFFFFF;stroke:#FFFFFF;stroke-miterlimit:10;}
	.st1{fill:#FFFFFF;}
</style>
<g>
	<path class="st0" d="M222.6,187.6l-35.1-74.3C177.3,91.9,155.4,78,131.6,78H76v-3.9c0-12.6-10.3-22.9-22.9-22.9H7.5
		c-4.1,0-7.5,3.4-7.5,7.5v32.2c0,4.1,3.4,7.5,7.5,7.5h14.6c4.3,0,7.9,3.5,7.9,7.9v58.8c0,4.1,3.4,7.5,7.5,7.5s7.5-3.4,7.5-7.5v-58.8
		c0-12.6-10.3-22.9-22.9-22.9H15V66.2h38.2c4.3,0,7.9,3.5,7.9,7.9v11.4v98.3H9.8c-4.1,0-7.5,3.4-7.5,7.5v97.5c0,4.1,3.4,7.5,7.5,7.5
		h30.5c3.4,13.4,15.5,23.3,29.9,23.3c14.4,0,26.5-9.9,29.9-23.3h40.8c3.4,13.4,15.5,23.3,29.9,23.3c14.4,0,26.5-9.9,29.9-23.3H216
		c4.1,0,7.5-3.4,7.5-7.5v-97.1c0-0.1,0-0.3,0-0.4C223.6,190,223.2,188.7,222.6,187.6z M76,93h55.6c11.1,0,21.6,4,29.9,10.8h-25.9
		c-16.6,0-30.2,13.5-30.2,30.2v0.5c0,16.6,13.5,30.2,30.2,30.2h35.2c4.1,0,7.5-3.4,7.5-7.5s-3.4-7.5-7.5-7.5h-35.2
		c-8.4,0-15.2-6.8-15.2-15.2V134c0-8.4,6.8-15.2,15.2-15.2h37.8c0.2,0.3,0.3,0.6,0.5,1l30.3,64H76V93z M70.2,304.7
		c-8.7,0-15.8-7.1-15.8-15.8S61.5,273,70.2,273S86,280.1,86,288.8S78.9,304.7,70.2,304.7z M170.8,304.7c-8.7,0-15.8-7.1-15.8-15.8
		s7.1-15.8,15.8-15.8c8.7,0,15.8,7.1,15.8,15.8c0,0,0,0,0,0s0,0,0,0C186.6,297.6,179.5,304.7,170.8,304.7z M208.5,281.3h-7.8
		c-3.4-13.4-15.5-23.3-29.9-23.3c-14.4,0-26.5,9.9-29.9,23.3h-40.8C96.8,267.9,84.6,258,70.2,258c-14.4,0-26.5,9.9-29.9,23.3h-23
		v-82.5h51.2h140L208.5,281.3L208.5,281.3z"/>
	<path class="st1" d="M363.4,281.3h-109V58.7c0-4.1-3.4-7.5-7.5-7.5s-7.5,3.4-7.5,7.5v230.1c0,4.1,3.4,7.5,7.5,7.5h116.5
		c4.1,0,7.5-3.4,7.5-7.5S367.5,281.3,363.4,281.3z"/>
	<path class="st1" d="M363.4,95.5h-88c-4.1,0-7.5,3.4-7.5,7.5v27.1v27.1v27.1v27.1v27.1v27.1c0,4.1,3.4,7.5,7.5,7.5h88
		c4.1,0,7.5-3.4,7.5-7.5v-27.1v-27.1v-27.1v-27.1v-27.1V103C370.9,98.8,367.5,95.5,363.4,95.5z M355.9,149.6h-73v-12.1h73V149.6z
		 M355.9,176.7h-73v-12.1h73V176.7z M282.9,191.7h73v12.1h-73V191.7z M282.9,110.5h73v12.1h-73V110.5z M355.9,258h-73v-19.6v-19.6
		h73v12.1h-46.1c-4.1,0-7.5,3.4-7.5,7.5s3.4,7.5,7.5,7.5h46.1V258z"/>
</g>
</svg>
