<?xml version="1.0" encoding="utf-8"?>
<!-- Generator: Adobe Illustrator 24.3.0, SVG Export Plug-In . SVG Version: 6.00 Build 0)  -->
<svg version="1.1" id="Capa_1" xmlns="http://www.w3.org/2000/svg" xmlns:xlink="http://www.w3.org/1999/xlink" x="0px" y="0px"
	 viewBox="0 0 352.8 352.8" style="enable-background:new 0 0 352.8 352.8;" xml:space="preserve">
<style type="text/css">
	.st0{fill:#FFFFFF;}
</style>
<path class="st0" d="M336.3,321.6V199.5v-24.5h14.4v-34h-14.4V40.4h14.4v-34H2.1v34h14.4v100.6H2.1v34h14.4v24.5v122.1H0v24.8h352.8
	v-24.8H336.3z M266.9,57.1h35.2v77.9h-35.2V57.1z M194.8,57.1H230v77.9h-35.2V57.1z M122.8,57.1H158v77.9h-35.2V57.1z M50.7,57.1
	h35.2v77.9H50.7V57.1z M87.9,321.6H49.5V204.3h38.4L87.9,321.6L87.9,321.6z M246.2,321.6H106.6V183.8h139.7V321.6z M303.3,321.6
	h-38.4V204.3h38.4V321.6z"/>
</svg>
