<?xml version="1.0" encoding="utf-8"?>
<!-- Generator: Adobe Illustrator 24.3.0, SVG Export Plug-In . SVG Version: 6.00 Build 0)  -->
<svg version="1.1" id="Layer_1" xmlns="http://www.w3.org/2000/svg" xmlns:xlink="http://www.w3.org/1999/xlink" x="0px" y="0px"
	 viewBox="0 0 512 512" style="enable-background:new 0 0 512 512;" xml:space="preserve">
<style type="text/css">
	.st0{fill:#FFFFFF;}
</style>
<g>
	<path class="st0" d="M448,112V16c0-4.4-3.6-8-8-8H104c-4.4,0-8,3.6-8,8v24H72c-4.4,0-8,3.6-8,8v32c0,4.4,3.6,8,8,8h24v48H72
		c-4.4,0-8,3.6-8,8v32c0,4.4,3.6,8,8,8h24v48H72c-4.4,0-8,3.6-8,8v32c0,4.4,3.6,8,8,8h24v48H72c-4.4,0-8,3.6-8,8v32c0,4.4,3.6,8,8,8
		h24v48H72c-4.4,0-8,3.6-8,8v32c0,4.4,3.6,8,8,8h24v24c0,4.4,3.6,8,8,8h316c15.5,0,28-12.5,28-28v-56c0-7.5-3-14.7-8.4-20
		c5.4-5.3,8.4-12.5,8.4-20v-56c0-7.5-3-14.7-8.4-20c5.4-5.3,8.4-12.5,8.4-20v-56c0-7.5-3-14.7-8.4-20c5.4-5.3,8.4-12.5,8.4-20v-56
		c0-4.7-1.2-9.3-3.4-13.4C446.7,117.1,448,114.6,448,112z M80,72V56h48v16H80z M80,168v-16h48v16H80z M80,264v-16h48v16H80z M80,360
		v-16h48v16H80z M80,456v-16h48v16H80z M432,476c0,6.6-5.4,12-12,12h-4v-80h4c6.6,0,12,5.4,12,12V476z M432,380c0,6.6-5.4,12-12,12
		h-4v-80h4c6.6,0,12,5.4,12,12V380z M432,284c0,6.6-5.4,12-12,12h-4v-80h4c6.6,0,12,5.4,12,12V284z M432,188c0,6.6-5.4,12-12,12h-4
		v-80h4c6.6,0,12,5.4,12,12V188z M432,104h-24c-4.4,0-8,3.6-8,8v376H112v-16h24c4.4,0,8-3.6,8-8v-32c0-4.4-3.6-8-8-8h-24v-48h24
		c4.4,0,8-3.6,8-8v-32c0-4.4-3.6-8-8-8h-24v-48h24c4.4,0,8-3.6,8-8v-32c0-4.4-3.6-8-8-8h-24v-48h24c4.4,0,8-3.6,8-8v-32
		c0-4.4-3.6-8-8-8h-24V88h24c4.4,0,8-3.6,8-8V48c0-4.4-3.6-8-8-8h-24V24h320V104z"/>
	<path class="st0" d="M352,208H176c-4.4,0-8,3.6-8,8v80c0,4.4,3.6,8,8,8h176c4.4,0,8-3.6,8-8v-80C360,211.6,356.4,208,352,208z
		 M344,288H184v-64h160V288z"/>
</g>
</svg>
