<?xml version="1.0" encoding="utf-8"?>
<!-- Generator: Adobe Illustrator 24.0.1, SVG Export Plug-In . SVG Version: 6.00 Build 0)  -->
<svg version="1.1" xmlns="http://www.w3.org/2000/svg" xmlns:xlink="http://www.w3.org/1999/xlink" x="0px" y="0px"
	 viewBox="0 0 612 265.57" style="enable-background:new 0 0 612 265.57;" xml:space="preserve">
<g>
	<path style="fill-rule:evenodd;clip-rule:evenodd;fill:#007CC3;" d="M572.17,66.61c9.09,0,16.56-7.4,16.56-16.56
		c0-9.09-7.47-16.57-16.56-16.57c-9.09,0-16.57,7.47-16.57,16.57C555.6,59.2,563.08,66.61,572.17,66.61L572.17,66.61z M558.07,50.04
		c0-7.75,6.34-14.1,14.1-14.1c7.75,0,14.09,6.34,14.09,14.1c0,7.75-6.34,14.09-14.09,14.09C564.41,64.14,558.07,57.79,558.07,50.04
		L558.07,50.04z M565.89,58.36h3.17v-7.05h3.74l2.75,7.05h3.52l-3.24-7.54c1.13-0.56,3.03-1.2,3.03-4.3c0-5.07-3.8-5.64-7.12-5.64
		h-5.85V58.36L565.89,58.36z M569.06,43.91h3.52c1.9,0,2.96,0.77,2.96,2.32s-1.2,2.25-2.68,2.25h-3.81V43.91L569.06,43.91z"/>
	<polygon style="fill:#007CC3;stroke:#007CC3;stroke-width:0;stroke-miterlimit:3.8637;" points="40.97,57.46 40.97,57.22 
		40.97,37.71 60.57,37.71 60.57,57.26 60.57,57.46 60.57,180.83 60.57,181.27 60.57,200.58 40.97,200.58 40.97,181.07 40.97,180.83 
		40.97,57.46 	"/>
	<path style="fill:#007CC3;" d="M240.25,141.27c0.51,29.6,18.94,53.27,41.17,52.88c22.23-0.4,39.85-24.72,39.35-54.32
		c-0.51-29.6-18.94-53.27-41.18-52.88C257.35,87.35,239.74,111.66,240.25,141.27L240.25,141.27z M402.51,105.47
		c0.51,1.13-0.7-1.69-0.7-1.69L402.51,105.47L402.51,105.47z M415.87,228.03c0.9-1.53,2.15-3.87,3.63-6.79L415.87,228.03
		L415.87,228.03z M417.02,95.26c0.24,0.65,0.51,1.34,0.82,2.07l6.6,16.15L417.02,95.26L417.02,95.26z M334.9,176.56
		c12.12,10.99,23.02,16.67,36.97,16.67c14.28,0.11,26.97-6.87,26.97-20.3c0-11.2-9.94-17.76-27.7-25.27
		c-15.05-6.51-26.25-11.07-32.11-20.5c0.72,4.1,1.09,8.33,1.09,12.65c0,36.36-26.38,65.82-58.92,65.82
		c-32.54,0-58.92-29.46-58.92-65.82c0-21.91,9.58-41.33,24.33-53.29h-39.87v94.31l0,0.38v19.38h-17.71v-18.75
		c0.01-0.32,0.01-0.66,0.01-1V86.52h-15.61V74.64h15.84c2.05-23.94,16.89-37.49,37.43-37.49c13.32,0,20.64,1.39,24.86,3.34v16.23
		c-0.06,1.21-0.06,1.95-0.06,1.95c-0.18-0.02-0.62-0.02-0.62-0.02c-6.41-5.92-12.74-10.31-27.51-10.3
		c-11.77,0-19.55,9.55-16.83,26.29h66.28c2.74-0.43,5.54-0.66,8.38-0.66c23.61,0,43.97,15.51,53.37,37.91
		c-0.08-1.24-0.13-2.54-0.13-3.9c0-23.37,22.63-33.31,46.14-33.26c0.9,0,1.78,0,2.64,0.02c8.28-0.13,20.07,2.57,27.26,4.46
		l6.54,16.05l7.42,18.21l19.94,48.62l2.34,7.81l2.6-7.81l25.22-62.41c4.65-17.18,23.07-24.62,43.41-24.58
		c10.11-0.04,17.58,1.17,26.53,4.32v18.87c-11.03-8.01-18.92-12.67-31.43-12.67c-11,0-24.22,4.86-24.22,21.04
		c-0.21,12.16,7.09,14.38,28.5,25c17.6,7.64,33.84,16.07,33.94,35.6c0,32.56-32.1,38.2-47.72,38.25c-13.95,0-26.73-3.44-33.84-9.35
		v-21.49l1.14,0.94c12.69,11.84,23.9,17.97,38.39,17.97c14.27,0.11,26.96-6.87,26.96-20.3c0-11.2-9.94-17.76-27.7-25.27
		c-16.98-7.34-28.12-12.21-32.67-24.38c-6.92,16.88-39.13,95.27-46.71,112.03h-17.36l4.1-7.65l3.63-6.79l0.12-0.22
		c4.35-8.57,10.69-22.01,16.32-34.87l-33.43-80.66c-0.22-0.49-0.77-1.73-1.89-4.27c-2.56-5.84-4.95-11.24-12.17-13.96
		c-3.87-1.3-7.98-1.98-12.77-1.98c-11,0-25.06,4.86-25.06,21.04c-0.21,12.16,7.93,14.38,29.35,25c17.6,7.64,33.84,16.07,33.94,35.6
		c0,32.56-32.1,38.2-47.72,38.25c-12.4,0-23.88-2.72-31.28-7.48V176.56L334.9,176.56z"/>
	<path style="fill:#007CC3;stroke:#007CC3;stroke-width:0;stroke-miterlimit:3.8637;" d="M402.51,105.47
		c0.51,1.13-0.7-1.69-0.7-1.69L402.51,105.47L402.51,105.47z"/>
	<path style="fill:none;stroke:#007CC3;stroke-width:0;stroke-miterlimit:3.8637;" d="M415.87,228.03c0.9-1.53,2.15-3.87,3.63-6.79
		L415.87,228.03L415.87,228.03z"/>
	<path style="fill:#007CC3;stroke:#007CC3;stroke-width:0;stroke-miterlimit:3.8637;" d="M417.02,95.26
		c0.24,0.65,0.51,1.34,0.82,2.07l6.6,16.15L417.02,95.26L417.02,95.26z"/>
	<g>
		<path style="fill:none;stroke:#007CC3;stroke-width:0;stroke-linecap:round;stroke-linejoin:round;" d="M240.25,141.27
			c0.51,29.6,18.94,53.27,41.17,52.88c22.23-0.4,39.85-24.72,39.35-54.32c-0.51-29.6-18.94-53.27-41.18-52.88
			C257.35,87.35,239.74,111.66,240.25,141.27z"/>
		<path style="fill:none;stroke:#007CC3;stroke-width:0;stroke-linecap:round;stroke-linejoin:round;" d="M173.42,74.64v11.87h15.61
			v94.31c0,0.34,0,0.68-0.01,1v18.75h17.71V181.2l0-0.38V86.52h39.87c-14.74,11.96-24.33,31.38-24.33,53.29
			c0,36.36,26.38,65.82,58.92,65.82c32.54,0,58.92-29.46,58.92-65.82c0-4.33-0.37-8.56-1.09-12.65c5.86,9.43,17.06,13.99,32.11,20.5
			c17.77,7.51,27.7,14.07,27.7,25.27c0,13.43-12.69,20.42-26.97,20.3c-13.95,0-24.85-5.68-36.97-16.67v21.12
			c7.39,4.77,18.87,7.48,31.28,7.48c15.62-0.05,47.72-5.68,47.72-38.25c-0.1-19.53-16.33-27.96-33.94-35.6
			c-21.42-10.62-29.56-12.84-29.35-25c0-16.18,14.06-21.04,25.06-21.04c4.79,0,8.9,0.68,12.77,1.98c7.22,2.72,9.61,8.12,12.17,13.96
			c1.12,2.54,1.67,3.78,1.89,4.27l33.43,80.66c-5.62,12.86-11.96,26.31-16.32,34.87l-0.12,0.22l-3.63,6.79l-4.1,7.65h17.36
			c7.58-16.75,39.79-95.15,46.71-112.03c4.55,12.17,15.69,17.03,32.67,24.38c17.77,7.51,27.7,14.07,27.7,25.27
			c0,13.43-12.69,20.42-26.96,20.3c-14.49,0-25.7-6.13-38.39-17.97l-1.14-0.94v21.49c7.11,5.91,19.9,9.35,33.84,9.35
			c15.62-0.05,47.72-5.68,47.72-38.25c-0.1-19.53-16.33-27.96-33.94-35.6c-21.42-10.62-28.71-12.84-28.5-25
			c0-16.18,13.22-21.04,24.22-21.04c12.51,0,20.41,4.65,31.43,12.67V79.43c-8.95-3.15-16.42-4.37-26.53-4.32
			c-20.34-0.04-38.76,7.4-43.41,24.58l-25.22,62.41l-2.6,7.81l-2.34-7.81l-19.94-48.62l-7.42-18.21l-6.54-16.05
			c-7.2-1.89-18.99-4.59-27.26-4.46c-0.86-0.01-1.74-0.02-2.64-0.02c-23.51-0.05-46.14,9.89-46.14,33.26c0,1.36,0.04,2.65,0.13,3.9
			c-9.4-22.4-29.77-37.91-53.37-37.91c-2.84,0-5.64,0.23-8.38,0.66h-66.28c-2.72-16.73,5.06-26.29,16.83-26.29
			c14.77-0.01,21.1,4.38,27.51,10.3c0,0,0.44,0,0.62,0.02c0,0,0-0.74,0.06-1.95V40.5c-4.22-1.96-11.54-3.34-24.86-3.34
			c-20.54,0-35.38,13.54-37.43,37.49H173.42z"/>
	</g>
	<path style="fill:#007CC3;stroke:#007CC3;stroke-width:0;stroke-miterlimit:3.8637;" d="M97.14,75.86l0.22,14.24l-0.01,0.96h0.19
		c0.23-0.6,0.54-1.1,0.83-1.48c7.2-7.71,16.27-15.38,37.84-15.38c20.64,0,34,17.53,34.53,28.56l0.02,78.05l0,0.39v19.37h-17.69
		l0-23.27l-0.01-66.45c0-13.75-12.08-23.7-26.86-23.7c-12.29,0-28.07,11.05-28.59,22.25v71.44l0,0.53v19.23h-17.7v-19.76V92.27
		l0-16.4h3.18h9.64H97.14L97.14,75.86z"/>
</g>
</svg>
